<?xml version="1.0" encoding="UTF-8" standalone="no"?>
<svg
   viewBox="0 0 212888.16 52182.938"
   version="1.1"
   id="svg20"
   width="212888.16"
   height="52182.938"
   xmlns="http://www.w3.org/2000/svg"
   xmlns:svg="http://www.w3.org/2000/svg">
  <defs
     id="defs20" />
  <path
     d="m -22018.894,-85940.438 c 4.29,0 8.58,0 13,0 0.33,0.66 0.66,1.32 1,2 0.516,-0.331 1.031,-0.66 1.563,-1 3.33,-1.367 5.864,-1.314 9.437,-1 2.75,1.5 2.75,1.5 5,3 3.035,0.277 3.035,0.277 5.25,-1.5 3.533,-1.927 5.772,-1.926 9.75,-1.5 3.823,1.699 5.472,3.146 7,7 0.241,2.417 0.241,2.417 0.227,5.136 0,1.02 0,2.041 0,3.093 -0.01,1.095 -0.02,2.19 -0.03,3.318 -0,1.126 -0,2.252 -0,3.413 -0.01,3.597 -0.04,7.193 -0.06,10.79 -0.01,2.438 -0.02,4.877 -0.03,7.316 -0.02,5.978 -0.06,11.955 -0.1,17.934 -3.96,0 -7.92,0 -12,0 0,-15.18 0,-30.36 0,-46 -2.64,0 -5.28,0 -8,0 0,15.18 0,30.36 0,46 -3.96,0 -7.92,0 -12,0 0,-15.18 0,-30.36 0,-46 -2.31,0 -4.62,0 -7,0 0,15.18 0,30.36 0,46 -4.29,0 -8.58,0 -13,0 0,-19.14 0,-38.28 0,-58 z"
     style="fill:#1d2333"
     id="path1" />
  <path
     d="m -22156.894,-85954.438 c 8.91,0 17.82,0 27,0 5.961,5.96 5.961,5.96 6.114,9.981 -0,1.246 -0.01,2.491 -0.02,3.777 -0,0.663 -0,1.326 -0,2.009 -0,2.119 -0.02,4.238 -0.03,6.358 -0,1.436 -0.01,2.872 -0.01,4.308 -0.01,3.523 -0.03,7.045 -0.05,10.567 -1.98,0.99 -3.96,1.98 -6,3 2.351,7.674 5.55,14.808 8.947,22.066 0.393,0.852 0.785,1.704 1.19,2.582 0.358,0.765 0.716,1.53 1.085,2.318 0.778,2.034 0.778,2.034 0.778,5.034 -4.29,0 -8.58,0 -13,0 -1.838,-3.956 -3.67,-7.915 -5.5,-11.875 -0.525,-1.128 -1.049,-2.256 -1.59,-3.418 -0.496,-1.077 -0.992,-2.153 -1.504,-3.262 -0.46,-0.996 -0.921,-1.99 -1.396,-3.015 -1.01,-2.43 -1.01,-2.43 -1.01,-4.43 -0.66,0 -1.32,0 -2,0 0,8.58 0,17.16 0,26 -4.29,0 -8.58,0 -13,0 0,-23.76 0,-47.52 0,-72 z m 13,11 c 0,7.26 0,14.52 0,22 2.64,-1.32 5.28,-2.64 8,-4 0,-5.941 0,-11.88 0,-18 -2.64,0 -5.28,0 -8,0 z"
     style="fill:#1d2333"
     id="path2" />
  <path
     d="m -22077.894,-85940.438 c 4.29,0 8.58,0 13,0 0,11.22 0,22.44 0,34 1.98,-0.99 3.96,-1.98 6,-3 0.33,-10.23 0.66,-20.46 1,-31 3.96,0 7.92,0 12,0 0.116,8.649 0.205,17.298 0.259,25.948 0.03,4.017 0.06,8.033 0.118,12.049 0.06,3.878 0.08,7.754 0.1,11.632 0,1.478 0.03,2.956 0.05,4.434 0.04,2.074 0.04,4.145 0.04,6.219 0.02,1.769 0.02,1.769 0.03,3.573 -0.779,4.079 -2.442,5.545 -5.601,8.145 -5.596,2.471 -11.117,2.069 -17,1 0,0.66 0,1.32 0,2 0.99,0 1.98,0 3,0 0,1.32 0,2.64 0,4 -0.99,0 -1.98,0 -3,0 0,1.32 0,2.64 0,4 0.99,0.33 1.98,0.66 3,1 0,0.99 0,1.98 0,3 -1.999,0.04 -4,0.04 -6,0 -2.342,-2.342 -1.329,-8.313 -1.426,-11.485 -0.656,-4.02 -1.957,-5.49 -4.574,-8.515 -0.741,-2.721 -0.807,-5.161 -1,-8 1.789,-1.005 3.581,-2.004 5.375,-3 0.998,-0.557 1.996,-1.114 3.024,-1.688 2.601,-1.312 2.601,-1.312 4.601,-1.312 0,2.64 0,5.28 0,8 2.31,0 4.62,0 7,0 -0.33,-5.61 -0.66,-11.22 -1,-17 -1.204,0.661 -2.408,1.322 -3.648,2.004 -1.576,0.853 -3.151,1.706 -4.727,2.558 -1.191,0.656 -1.191,0.656 -2.406,1.326 -1.141,0.614 -1.141,0.614 -2.305,1.241 -0.702,0.382 -1.403,0.764 -2.126,1.157 -0.59,0.235 -1.18,0.472 -1.788,0.714 -0.66,-0.331 -1.32,-0.66 -2,-1 0,-17.16 0,-34.32 0,-52 z"
     style="fill:#1d2333"
     id="path3" />
  <path
     d="m -22268.894,-85955.438 c 8.91,0 17.82,0 27,0 5.268,5.268 6.113,6.536 6.161,13.386 0.01,1.101 0.02,2.203 0.03,3.338 0,1.191 0,2.381 0.01,3.608 0,1.223 0.01,2.449 0.02,3.71 0,2.594 0.02,5.187 0.02,7.78 0.01,3.964 0.04,7.927 0.07,11.891 0,2.519 0.01,5.037 0.01,7.556 0.01,1.184 0.02,2.369 0.04,3.589 -0.03,10.479 -0.03,10.479 -3.366,15.142 -8.339,5.559 -19.978,2 -30,2 0,-23.76 0,-47.52 0,-72 z m 13,11 c -1.142,2.285 -1.127,3.555 -1.129,6.095 -0,0.843 -0,1.689 -0.01,2.559 0,0.915 0,1.829 0,2.772 -0,0.939 -0,1.879 -0,2.847 0,1.992 0,3.983 0,5.975 0,3.041 0,6.083 -0,9.125 0,1.934 0,3.868 0,5.803 -0,0.908 -0,1.817 -0,2.753 0.01,4.151 0.08,8.023 1.139,12.071 2.31,0 4.62,0 7,0 0,-16.5 0,-33 0,-50 -2.31,0 -4.62,0 -7,0 z"
     style="fill:#3758f9"
     id="path4" />
  <path
     d="m -22198.894,-85955.438 c 4.29,0 8.58,0 13,0 0.861,4.731 1.716,9.463 2.564,14.197 0.289,1.608 0.58,3.216 0.873,4.824 0.422,2.317 0.837,4.636 1.251,6.955 0.131,0.712 0.262,1.426 0.397,2.16 0.707,4.005 1.049,7.798 0.915,11.864 0.66,0 1.32,0 2,0 0.06,-1.043 0.06,-1.043 0.129,-2.107 0.592,-8.334 1.904,-16.434 3.434,-24.643 0.234,-1.282 0.468,-2.563 0.709,-3.884 0.571,-3.122 1.149,-6.244 1.728,-9.366 4.29,0 8.58,0 13,0 -2.906,17.637 -5.834,35.27 -8.919,52.876 -0.262,1.498 -0.523,2.996 -0.783,4.494 -0.363,2.088 -0.73,4.174 -1.099,6.263 -0.208,1.184 -0.416,2.369 -0.63,3.589 -0.569,2.778 -0.569,2.778 -1.569,4.778 -4.62,0 -9.24,0 -14,0 -2.084,-8.772 -3.909,-17.537 -5.48,-26.414 -0.218,-1.218 -0.436,-2.436 -0.66,-3.69 -0.455,-2.545 -0.907,-5.091 -1.359,-7.638 -0.693,-3.908 -1.392,-7.816 -2.093,-11.723 -0.442,-2.483 -0.884,-4.966 -1.326,-7.449 -0.209,-1.169 -0.419,-2.338 -0.634,-3.542 -0.191,-1.079 -0.381,-2.158 -0.578,-3.269 -0.168,-0.949 -0.337,-1.898 -0.51,-2.876 -0.36,-2.399 -0.36,-2.399 -0.36,-5.399 z"
     style="fill:#3758f9"
     id="path5" />
  <path
     d="m -22104.894,-85955.438 c 0.33,5.94 0.66,11.88 1,18 1.65,-0.99 3.3,-1.98 5,-3 4.971,-0.533 8.059,-0.153 12,3 1.953,3.11 2.245,5.496 2.227,9.136 0,1.02 0,2.041 0,3.093 -0.01,1.095 -0.02,2.19 -0.03,3.318 -0,1.126 -0,2.252 -0,3.413 -0.01,3.597 -0.04,7.193 -0.06,10.79 -0.01,2.438 -0.02,4.877 -0.03,7.316 -0.02,5.978 -0.06,11.955 -0.1,17.934 -3.96,0 -7.92,0 -12,0 0,-15.18 0,-30.36 0,-46 -2.64,0 -5.28,0 -8,0 0,15.18 0,30.36 0,46 -3.96,0 -7.92,0 -12,0 0,-22.11 0,-44.22 0,-67 11,-6 11,-6 12,-6 z"
     style="fill:#1d2333"
     id="path6" />
  <path
     d="m -21943.394,-85940.813 c 0.746,-0.01 1.493,-0.02 2.262,-0.04 4.556,0.02 7.546,0.476 11.238,3.41 2.102,3.153 2.244,3.861 2.195,7.449 -0,0.848 -0.01,1.695 -0.02,2.568 -0.02,0.881 -0.03,1.763 -0.05,2.67 -0,0.893 -0.02,1.785 -0.03,2.705 -0.02,2.203 -0.06,4.405 -0.1,6.608 -2.788,1.506 -5.581,3.004 -8.375,4.5 -0.794,0.429 -1.588,0.858 -2.406,1.301 -1.141,0.609 -1.141,0.609 -2.305,1.23 -1.052,0.566 -1.052,0.566 -2.126,1.143 -1.788,0.826 -1.788,0.826 -3.788,0.826 0,4.29 0,8.58 0,13 2.31,0 4.62,0 7,0 0,-3.63 0,-7.26 0,-11 9.75,-5 9.75,-5 12,-5 0.146,3.374 0.234,6.748 0.313,10.125 0.04,0.951 0.08,1.902 0.127,2.883 0.07,4.278 0.134,7.979 -2.303,11.629 -4.503,3.392 -8.141,3.213 -13.637,3.05 -0.937,0.01 -1.874,0.03 -2.84,0.04 -4.622,-0.05 -6.962,-0.215 -10.754,-3.025 -3.401,-4.831 -3.079,-9.625 -3.109,-15.383 -0,-0.843 -0.01,-1.687 -0.02,-2.556 -0.01,-1.782 -0.02,-3.565 -0.02,-5.349 -0.01,-2.712 -0.04,-5.424 -0.07,-8.136 -0,-1.736 -0.01,-3.474 -0.02,-5.209 -0.01,-0.804 -0.02,-1.609 -0.04,-2.438 0.02,-5.286 0.883,-8.943 3.365,-13.636 4.089,-3.63 8.301,-3.456 13.5,-3.375 z m -3.5,12.375 c 0,3.63 0,7.26 0,11 2.31,-0.99 4.62,-1.98 7,-3 0,-2.64 0,-5.28 0,-8 -2.31,0 -4.62,0 -7,0 z"
     style="fill:#1d2333"
     id="path7" />
  <path
     d="m -22218.374,-85956.024 c 1.022,0.02 2.043,0.04 3.096,0.06 1.055,0.05 2.11,0.101 3.197,0.153 1.612,0.04 1.612,0.04 3.256,0.08 2.645,0.07 5.288,0.178 7.932,0.293 0,3.63 0,7.26 0,11 -5.28,0 -10.56,0 -16,0 0,5.94 0,11.88 0,18 4.519,-2.301 4.519,-2.301 9.034,-4.608 4.743,-2.392 4.743,-2.392 6.966,-2.392 0,4.62 0,9.24 0,14 -2.29,1.171 -4.582,2.337 -6.875,3.5 -0.651,0.334 -1.302,0.667 -1.973,1.011 -4.926,2.489 -4.926,2.489 -7.152,2.489 0,5.94 0,11.88 0,18 5.28,0 10.56,0 16,0 0,3.63 0,7.26 0,11 -9.24,0 -18.48,0 -28,0 -0.114,-8.502 -0.205,-17.003 -0.259,-25.505 -0.03,-3.949 -0.06,-7.896 -0.119,-11.845 -0.05,-3.812 -0.08,-7.625 -0.1,-11.437 -0,-1.452 -0.03,-2.904 -0.05,-4.356 -0.229,-12.795 -0.229,-12.795 2.714,-16.76 3.14,-2.341 4.469,-2.813 8.334,-2.683 z"
     style="fill:#3758f9"
     id="path8" />
  <path
     d="m -22327.894,-85956.438 c 0,2.97 0,5.94 0,9 -1.98,0.33 -3.96,0.66 -6,1 0.02,1.29 0.05,2.581 0.07,3.91 0.02,1.717 0.04,3.435 0.06,5.152 0.02,0.848 0.03,1.694 0.05,2.569 0.04,5.771 0.08,11.673 -3.801,16.306 -0.454,0.351 -0.907,0.702 -1.375,1.063 1.204,2.493 2.454,4.68 4,7 1.304,4.655 1.331,9.509 1.563,14.312 0.04,0.836 0.09,1.671 0.13,2.534 0.106,2.05 0.207,4.102 0.307,6.154 1.65,0.33 3.3,0.66 5,1 0,3.3 0,6.6 0,10 -8.196,-0.367 -8.196,-0.367 -11.937,-3.313 -2.923,-3.808 -4.319,-6.336 -4.196,-11.172 0.416,-9.635 0.416,-9.635 -2.742,-18.399 -2.194,-1.99 -2.194,-1.99 -4.426,-3.655 -1.699,-1.461 -1.699,-1.461 -2.011,-4.711 1.583,-3.317 3.225,-4.793 6.312,-6.75 0.66,0 1.32,0 2,0 0,-0.666 0.02,-1.331 0.03,-2.017 0.05,-3.036 0.138,-6.072 0.222,-9.108 0.02,-1.57 0.02,-1.57 0.04,-3.172 0.238,-7.516 1.32,-11.074 6.457,-16.578 3.448,-1.725 6.425,-1.316 10.25,-1.125 z"
     style="fill:#3758f9"
     id="path9" />
  <path
     d="m -22314.894,-85956.438 c 7.768,-0.67 7.768,-0.67 11.375,2.187 5.811,6.227 4.924,13.083 4.752,21.153 -0.05,5.118 -0.05,5.118 2.441,9.344 1.862,1.341 1.862,1.341 3.807,2.352 1.625,0.964 1.625,0.964 2.875,3.401 -0.385,3.953 -2.538,5.789 -5.25,8.563 -0.99,0.66 -1.98,1.32 -3,2 -0.442,2.124 -0.442,2.124 -0.371,4.578 -0.02,0.913 -0.03,1.828 -0.05,2.769 -0,1.92 -0.01,3.839 -0.01,5.758 -0.118,5.805 -0.604,9.325 -4.561,13.895 -3.291,2.718 -5.096,3.933 -9.375,4.25 -0.866,-0.08 -1.732,-0.165 -2.625,-0.25 0,-3.301 0,-6.6 0,-10 2.475,-0.495 2.475,-0.495 5,-1 0.04,-1.291 0.08,-2.581 0.113,-3.91 0.07,-1.718 0.133,-3.435 0.2,-5.153 0.03,-1.272 0.03,-1.272 0.07,-2.568 0.234,-5.503 1.133,-9.448 3.619,-14.369 0.392,-0.805 0.784,-1.609 1.188,-2.438 0.268,-0.515 0.536,-1.031 0.812,-1.562 -0.959,-1.114 -0.959,-1.114 -1.937,-2.25 -2.797,-3.729 -3.163,-6.721 -3.379,-11.297 -0.06,-1.267 -0.06,-1.267 -0.127,-2.559 -0.04,-0.873 -0.08,-1.745 -0.119,-2.644 -0.04,-0.888 -0.09,-1.778 -0.131,-2.692 -0.106,-2.186 -0.208,-4.372 -0.307,-6.558 -2.475,-0.99 -2.475,-0.99 -5,-2 0,-2.97 0,-5.941 0,-9 z"
     style="fill:#3758f9"
     id="path10" />
  <path
     d="m -22025.894,-85955.438 c 0,24.09 0,48.18 0,73 -3.96,0 -7.92,0 -12,0 0,-22.11 0,-44.22 0,-67 11,-6 11,-6 12,-6 z"
     style="fill:#1d2333"
     id="path11" />
  <path
     d="m -22092.894,-85869.438 c 1.32,0 2.64,0 4,0 0,5.28 0,10.559 0,16 -7.333,1.222 -7.333,1.222 -10.437,0.187 -1.563,-1.187 -1.563,-1.187 -2.563,-3.187 -0.45,-5.289 -0.45,-5.289 1.188,-7.875 2.372,-1.473 4.071,-1.347 6.812,-1.125 0.33,-1.32 0.66,-2.64 1,-4 z m -4,8 c -0.33,0.99 -0.66,1.98 -1,3 1.485,0.99 1.485,0.99 3,2 0.66,-1.32 1.32,-2.64 2,-4 -1.32,-0.331 -2.64,-0.66 -4,-1 z"
     style="fill:#1d2333"
     id="path12" />
  <path
     d="m -22079.206,-85865.75 c 1.753,0.102 3.506,0.206 5.313,0.312 0,3.96 0,7.919 0,12 -8.255,1.336 -8.255,1.336 -11.5,-0.125 -1.92,-2.399 -2.427,-3.794 -2.5,-6.875 1.387,-5.203 3.778,-5.312 8.687,-5.312 z m -3.687,4.312 c 0,1.32 0,2.64 0,4 0.99,0.33 1.98,0.66 3,1 0.33,-1.65 0.66,-3.301 1,-5 -1.32,0 -2.64,0 -4,0 z"
     style="fill:#1d2333"
     id="path13" />
  <path
     d="m -22044.894,-85865.438 c 8.399,-0.293 8.399,-0.293 11,0 2.136,3.203 2.231,4.019 2.125,7.687 -0.02,0.809 -0.04,1.617 -0.06,2.45 -0.03,0.922 -0.03,0.922 -0.07,1.863 -1.65,0 -3.3,0 -5,0 0,-2.64 0,-5.28 0,-8 -0.99,0 -1.98,0 -3,0 0,2.64 0,5.28 0,8 -1.65,0 -3.3,0 -5,0 0,-3.96 0,-7.92 0,-12 z"
     style="fill:#1d2333"
     id="path14" />
  <path
     d="m -22129.894,-85865.438 c 1.65,0 3.3,0 5,0 0.33,2.64 0.66,5.28 1,8 0.33,0 0.66,0 1,0 0.33,-2.64 0.66,-5.28 1,-8 1.65,0 3.3,0 5,0 0,3.96 0,7.919 0,12 -7.333,1.222 -7.333,1.222 -10.437,0.187 -1.563,-1.187 -1.563,-1.187 -2.563,-3.187 -0.07,-1.54 -0.08,-3.085 -0.06,-4.625 0,-0.817 0.02,-1.635 0.03,-2.477 0.01,-0.627 0.02,-1.253 0.03,-1.898 z"
     style="fill:#1d2333"
     id="path15" />
  <path
     d="m -22052.394,-85865.938 c 3.5,0.5 3.5,0.5 5.438,1.562 1.716,3.13 1.56,5.455 1.062,8.938 -2.125,2.062 -2.125,2.062 -5,3 -3.187,-0.438 -3.187,-0.438 -6,-2 -1.562,-2.813 -1.562,-2.813 -2,-6 1.357,-4.163 2.121,-4.875 6.5,-5.5 z m -1.5,4.5 c 0.33,1.65 0.66,3.3 1,5 0.99,-0.331 1.98,-0.66 3,-1 -0.33,-1.32 -0.66,-2.64 -1,-4 -0.99,0 -1.98,0 -3,0 z"
     style="fill:#1d2333"
     id="path16" />
  <path
     d="m -22133.894,-85865.438 c 1.875,1.062 1.875,1.062 3,3 0.5,3.5 0.5,3.5 0,7 -2.125,2.062 -2.125,2.062 -5,3 -3.187,-0.438 -3.187,-0.438 -6,-2 -1.5,-2.875 -1.5,-2.875 -2,-6 0.75,-2.313 0.75,-2.313 2,-4 2.799,-1.4 4.905,-1.253 8,-1 z m -5,4 c 0.33,1.65 0.66,3.3 1,5 0.99,-0.331 1.98,-0.66 3,-1 -0.33,-1.32 -0.66,-2.64 -1,-4 -0.99,0 -1.98,0 -3,0 z"
     style="fill:#1d2333"
     id="path17" />
  <path
     d="m -22114.894,-85865.438 c 1.609,-0.04 3.218,-0.08 4.875,-0.125 0.905,-0.02 1.81,-0.05 2.742,-0.07 2.383,0.196 2.383,0.196 4.383,2.196 0.195,2.383 0.195,2.383 0.125,5.125 -0.02,0.91 -0.04,1.82 -0.06,2.758 -0.02,0.698 -0.05,1.397 -0.07,2.117 -1.32,0 -2.64,0 -4,0 -0.33,-2.31 -0.66,-4.62 -1,-7 -0.99,-0.331 -1.98,-0.66 -3,-1 0,2.64 0,5.28 0,8 -1.32,0 -2.64,0 -4,0 0,-3.96 0,-7.92 0,-12 z"
     style="fill:#1d2333"
     id="path18" />
  <path
     d="m -22153.894,-85868.438 c 3.3,0 6.6,0 10,0 0,1.32 0,2.64 0,4 -1.98,0 -3.96,0 -6,0 0,0.66 0,1.32 0,2 1.65,0 3.3,0 5,0 0,0.99 0,1.98 0,3 -1.65,0 -3.3,0 -5,0 0,1.98 0,3.96 0,6 -1.32,0 -2.64,0 -4,0 0,-4.95 0,-9.9 0,-15 z"
     style="fill:#1d2333"
     id="path19" />
  <path
     d="m -22063.894,-85865.438 c 1.32,0 2.64,0 4,0 0,3.96 0,7.919 0,12 -1.32,0 -2.64,0 -4,0 0,-3.96 0,-7.92 0,-12 z"
     style="fill:#1d2333"
     id="path20" />
</svg>
