<?xml version="1.0" encoding="UTF-8"?>
<svg version="1.1" xmlns="http://www.w3.org/2000/svg" width="433" height="114">
<path d="M0 0 C4.29 0 8.58 0 13 0 C13.33 0.66 13.66 1.32 14 2 C14.515625 1.67 15.03125 1.34 15.5625 1 C18.89310774 -0.36640318 21.42646082 -0.31346835 25 0 C27.75 1.5 27.75 1.5 30 3 C33.03466876 3.2773501 33.03466876 3.2773501 35.25 1.5 C38.78300311 -0.4270926 41.02234635 -0.42617718 45 0 C48.82300378 1.69911279 50.47150439 3.14752975 52 7 C52.24050903 9.41717529 52.24050903 9.41717529 52.22705078 12.13574219 C52.22689972 13.15649841 52.22674866 14.17725464 52.22659302 15.22894287 C52.21627045 16.32386047 52.20594788 17.41877808 52.1953125 18.546875 C52.1924826 19.6732135 52.18965271 20.799552 52.18673706 21.96002197 C52.17554374 25.55678946 52.15044037 29.15330779 52.125 32.75 C52.11496912 35.18879849 52.10584346 37.62760088 52.09765625 40.06640625 C52.07560712 46.04436681 52.04108277 52.02214116 52 58 C48.04 58 44.08 58 40 58 C40 42.82 40 27.64 40 12 C37.36 12 34.72 12 32 12 C32 27.18 32 42.36 32 58 C28.04 58 24.08 58 20 58 C20 42.82 20 27.64 20 12 C17.69 12 15.38 12 13 12 C13 27.18 13 42.36 13 58 C8.71 58 4.42 58 0 58 C0 38.86 0 19.72 0 0 Z " fill="#FEFEFE" transform="translate(337,20)"/>
<path d="M0 0 C8.91 0 17.82 0 27 0 C32.96040868 5.96040868 32.96040868 5.96040868 33.11352539 9.98095703 C33.10828857 11.22731934 33.10305176 12.47368164 33.09765625 13.7578125 C33.0962413 14.42086395 33.09482635 15.08391541 33.09336853 15.76705933 C33.08776754 17.88641863 33.075215 20.00567259 33.0625 22.125 C33.05748512 23.56119639 33.05292219 24.99739444 33.04882812 26.43359375 C33.03779782 29.95576345 33.02053259 33.47787145 33 37 C31.02 37.99 29.04 38.98 27 40 C29.35128881 47.67410207 32.54978423 54.80791111 35.94726562 62.06640625 C36.33978516 62.91847656 36.73230469 63.77054688 37.13671875 64.6484375 C37.49467529 65.41333496 37.85263184 66.17823242 38.22143555 66.96630859 C39 69 39 69 39 72 C34.71 72 30.42 72 26 72 C24.16209521 68.04373093 22.32949332 64.08515629 20.5 60.125 C19.97535156 58.99707031 19.45070312 57.86914062 18.91015625 56.70703125 C18.41386719 55.63066406 17.91757813 54.55429687 17.40625 53.4453125 C16.94541016 52.45031738 16.48457031 51.45532227 16.00976562 50.43017578 C15 48 15 48 15 46 C14.34 46 13.68 46 13 46 C13 54.58 13 63.16 13 72 C8.71 72 4.42 72 0 72 C0 48.24 0 24.48 0 0 Z M13 11 C13 18.26 13 25.52 13 33 C15.64 31.68 18.28 30.36 21 29 C21 23.06 21 17.12 21 11 C18.36 11 15.72 11 13 11 Z " fill="#FDFDFD" transform="translate(199,6)"/>
<path d="M0 0 C4.29 0 8.58 0 13 0 C13 11.22 13 22.44 13 34 C14.98 33.01 16.96 32.02 19 31 C19.33 20.77 19.66 10.54 20 0 C23.96 0 27.92 0 32 0 C32.11594308 8.64924833 32.20473943 17.29822843 32.25906086 25.94808483 C32.28513507 29.96477428 32.32049178 33.98093138 32.37719727 37.99731445 C32.43159709 41.87473581 32.46143691 45.75164575 32.47438622 49.62941933 C32.48361202 51.10743574 32.50162858 52.58542471 32.52865028 54.06322289 C32.56505088 56.13675374 32.56994139 58.20818254 32.56762695 60.28198242 C32.58428154 62.05069954 32.58428154 62.05069954 32.60127258 63.85514832 C31.82143191 67.93396934 30.15897935 69.40020487 27 72 C21.40355543 74.47167929 15.88265525 74.06957368 10 73 C10 73.66 10 74.32 10 75 C10.99 75 11.98 75 13 75 C13 76.32 13 77.64 13 79 C12.01 79 11.02 79 10 79 C10 80.32 10 81.64 10 83 C10.99 83.33 11.98 83.66 13 84 C13 84.99 13 85.98 13 87 C11.00045254 87.04254356 8.99958364 87.04080783 7 87 C4.65832285 84.65832285 5.67041653 78.68683467 5.57421875 75.515625 C4.91756291 71.49528311 3.61736049 70.02552587 1 67 C0.259262 64.27921236 0.19246236 61.83881975 0 59 C1.78881736 57.99491199 3.58114696 56.99607264 5.375 56 C6.37273437 55.443125 7.37046875 54.88625 8.3984375 54.3125 C11 53 11 53 13 53 C13 55.64 13 58.28 13 61 C15.31 61 17.62 61 20 61 C19.67 55.39 19.34 49.78 19 44 C17.79601562 44.66128906 16.59203125 45.32257813 15.3515625 46.00390625 C13.77626882 46.85719033 12.20073553 47.71003215 10.625 48.5625 C9.43390625 49.21895508 9.43390625 49.21895508 8.21875 49.88867188 C7.07792969 50.50258789 7.07792969 50.50258789 5.9140625 51.12890625 C5.2123291 51.51119385 4.5105957 51.89348145 3.78759766 52.28735352 C3.19769043 52.52252686 2.6077832 52.7577002 2 53 C1.34 52.67 0.68 52.34 0 52 C0 34.84 0 17.68 0 0 Z " fill="#FEFEFE" transform="translate(278,20)"/>
<path d="M0 0 C8.91 0 17.82 0 27 0 C32.26779446 5.26779446 33.11291896 6.53609895 33.16113281 13.38598633 C33.17074036 14.48755569 33.1803479 15.58912506 33.19024658 16.72407532 C33.19449646 17.91470078 33.19874634 19.10532623 33.203125 20.33203125 C33.20882507 21.55653488 33.21452515 22.78103851 33.22039795 24.04264832 C33.22985113 26.63592667 33.23638319 29.22921705 33.24023438 31.82250977 C33.24993559 35.7861838 33.28095522 39.74933843 33.3125 43.71289062 C33.31903049 46.23176775 33.32428078 48.75064859 33.328125 51.26953125 C33.3404718 52.45408401 33.3528186 53.63863678 33.36553955 54.85908508 C33.33723729 65.33676319 33.33723729 65.33676319 30 70 C21.66102755 75.55931497 10.02219759 72 0 72 C0 48.24 0 24.48 0 0 Z M13 11 C11.85745883 13.28508234 11.87331865 14.55648227 11.87060547 17.0949707 C11.86745331 17.93957352 11.86430115 18.78417633 11.86105347 19.65437317 C11.8630777 20.56893784 11.86510193 21.4835025 11.8671875 22.42578125 C11.86623077 23.36552292 11.86527405 24.30526459 11.86428833 25.27348328 C11.86360694 27.26492377 11.86545836 29.25636649 11.86962891 31.24780273 C11.87495987 34.28960198 11.86969178 37.33125235 11.86328125 40.37304688 C11.86394239 42.30729199 11.86522429 44.24153702 11.8671875 46.17578125 C11.86516327 47.08427322 11.86313904 47.9927652 11.86105347 48.92878723 C11.87637627 53.08041036 11.94478441 56.95256186 13 61 C15.31 61 17.62 61 20 61 C20 44.5 20 28 20 11 C17.69 11 15.38 11 13 11 Z " fill="#E0D9C6" transform="translate(87,5)"/>
<path d="M0 0 C4.29 0 8.58 0 13 0 C13.86116747 4.73107695 14.71543657 9.46332965 15.56347656 14.19677734 C15.85262171 15.80518764 16.14361338 17.41326717 16.43652344 19.02099609 C16.85843905 21.33866177 17.2735895 23.65745552 17.6875 25.9765625 C17.81874268 26.68930328 17.94998535 27.40204407 18.08520508 28.13638306 C18.7923771 32.14102328 19.13346238 35.9349584 19 40 C19.66 40 20.32 40 21 40 C21.06368774 38.95730957 21.06368774 38.95730957 21.12866211 37.89355469 C21.72097713 29.55868944 23.0329221 21.45916319 24.5625 13.25 C24.79646484 11.96867187 25.03042969 10.68734375 25.27148438 9.3671875 C25.84254194 6.24385226 26.4205448 3.12178818 27 0 C31.29 0 35.58 0 40 0 C37.0942554 17.63690425 34.16568072 35.26987973 31.08111572 52.87652588 C30.81893741 54.3741824 30.55782698 55.87202626 30.29779053 57.37005615 C29.93484077 59.4582259 29.56770559 61.5456137 29.19921875 63.6328125 C28.99127686 64.81762207 28.78333496 66.00243164 28.5690918 67.22314453 C28 70 28 70 27 72 C22.38 72 17.76 72 13 72 C10.91612928 63.22799746 9.09062769 54.46293403 7.51953125 45.5859375 C7.30181564 44.36846832 7.08410004 43.15099915 6.85978699 41.89663696 C6.40533771 39.3508089 5.95249852 36.80469293 5.5012207 34.25830078 C4.80802601 30.34977372 4.10846087 26.4424234 3.40820312 22.53515625 C2.96576988 20.05215029 2.52369935 17.56907967 2.08203125 15.0859375 C1.87270462 13.91727142 1.66337799 12.74860535 1.44770813 11.54452515 C1.25718369 10.46554962 1.06665924 9.3865741 0.87036133 8.27490234 C0.70176102 7.32594086 0.53316071 6.37697937 0.35945129 5.39926147 C0 3 0 3 0 0 Z " fill="#E1DAC7" transform="translate(157,5)"/>
<path d="M0 0 C0.33 5.94 0.66 11.88 1 18 C2.65 17.01 4.3 16.02 6 15 C10.97049643 14.46744681 14.05881562 14.8470525 18 18 C19.95248298 21.11066002 20.24506971 23.49591817 20.22705078 27.13574219 C20.22689972 28.15649841 20.22674866 29.17725464 20.22659302 30.22894287 C20.21627045 31.32386047 20.20594788 32.41877808 20.1953125 33.546875 C20.1924826 34.6732135 20.18965271 35.799552 20.18673706 36.96002197 C20.17554374 40.55678946 20.15044037 44.15330779 20.125 47.75 C20.11496912 50.18879849 20.10584346 52.62760088 20.09765625 55.06640625 C20.07560712 61.04436681 20.04108277 67.02214116 20 73 C16.04 73 12.08 73 8 73 C8 57.82 8 42.64 8 27 C5.36 27 2.72 27 0 27 C0 42.18 0 57.36 0 73 C-3.96 73 -7.92 73 -12 73 C-12 50.89 -12 28.78 -12 6 C-1 0 -1 0 0 0 Z " fill="#FDFEFE" transform="translate(251,5)"/>
<path d="M0 0 C0.74636719 -0.01160156 1.49273437 -0.02320312 2.26171875 -0.03515625 C6.8178123 -0.0109646 9.80804629 0.44072336 13.5 3.375 C15.60209857 6.52814785 15.7434761 7.23603081 15.6953125 10.82421875 C15.68886719 11.67177734 15.68242187 12.51933594 15.67578125 13.39257812 C15.65902344 14.27365234 15.64226562 15.15472656 15.625 16.0625 C15.61597656 16.95517578 15.60695313 17.84785156 15.59765625 18.76757812 C15.57409748 20.97032314 15.54120329 23.17252588 15.5 25.375 C12.7118978 26.8816972 9.91896042 28.37919804 7.125 29.875 C6.3309375 30.30425781 5.536875 30.73351562 4.71875 31.17578125 C3.57792969 31.78486328 3.57792969 31.78486328 2.4140625 32.40625 C1.3614624 32.97182617 1.3614624 32.97182617 0.28759766 33.54882812 C-1.5 34.375 -1.5 34.375 -3.5 34.375 C-3.5 38.665 -3.5 42.955 -3.5 47.375 C-1.19 47.375 1.12 47.375 3.5 47.375 C3.5 43.745 3.5 40.115 3.5 36.375 C13.25 31.375 13.25 31.375 15.5 31.375 C15.64611313 34.74953898 15.73433467 38.12325766 15.8125 41.5 C15.85439453 42.45132813 15.89628906 43.40265625 15.93945312 44.3828125 C16.01373076 48.66120417 16.07417845 52.36312253 13.63671875 56.01171875 C9.13346855 59.40457849 5.49634508 59.22504666 0 59.0625 C-0.93714844 59.07732422 -1.87429688 59.09214844 -2.83984375 59.10742188 C-7.46174185 59.05169686 -9.80177762 58.89249563 -13.59375 56.08203125 C-16.99551643 51.25124409 -16.67293389 46.45681332 -16.703125 40.69921875 C-16.70882507 39.8558345 -16.71452515 39.01245026 -16.72039795 38.14350891 C-16.72983097 36.36074064 -16.73637518 34.57795507 -16.74023438 32.79516602 C-16.74992841 30.08253178 -16.78096268 27.37065933 -16.8125 24.65820312 C-16.81903194 22.92187947 -16.82428166 21.18555043 -16.828125 19.44921875 C-16.8404718 18.64481857 -16.8528186 17.8404184 -16.86553955 17.01164246 C-16.8448631 11.72474952 -15.98171589 8.06781515 -13.5 3.375 C-9.41133517 -0.25443074 -5.19923917 -0.08081719 0 0 Z M-3.5 12.375 C-3.5 16.005 -3.5 19.635 -3.5 23.375 C-1.19 22.385 1.12 21.395 3.5 20.375 C3.5 17.735 3.5 15.095 3.5 12.375 C1.19 12.375 -1.12 12.375 -3.5 12.375 Z " fill="#FDFDFE" transform="translate(412.5,19.625)"/>
<path d="M0 0 C1.02158203 0.01933594 2.04316406 0.03867188 3.09570312 0.05859375 C4.15080078 0.10886719 5.20589844 0.15914063 6.29296875 0.2109375 C7.90461914 0.25154297 7.90461914 0.25154297 9.54882812 0.29296875 C12.19357108 0.36349523 14.8372787 0.47110865 17.48046875 0.5859375 C17.48046875 4.2159375 17.48046875 7.8459375 17.48046875 11.5859375 C12.20046875 11.5859375 6.92046875 11.5859375 1.48046875 11.5859375 C1.48046875 17.5259375 1.48046875 23.4659375 1.48046875 29.5859375 C6.00004894 27.28662286 6.00004894 27.28662286 10.51513672 24.97851562 C15.25824653 22.5859375 15.25824653 22.5859375 17.48046875 22.5859375 C17.48046875 27.2059375 17.48046875 31.8259375 17.48046875 36.5859375 C15.19117822 37.75748043 12.89928513 38.92331824 10.60546875 40.0859375 C9.95449219 40.41980469 9.30351562 40.75367188 8.6328125 41.09765625 C3.70703125 43.5859375 3.70703125 43.5859375 1.48046875 43.5859375 C1.48046875 49.5259375 1.48046875 55.4659375 1.48046875 61.5859375 C6.76046875 61.5859375 12.04046875 61.5859375 17.48046875 61.5859375 C17.48046875 65.2159375 17.48046875 68.8459375 17.48046875 72.5859375 C8.24046875 72.5859375 -0.99953125 72.5859375 -10.51953125 72.5859375 C-10.63265083 64.08421805 -10.72431415 55.58308703 -10.77859211 47.08081627 C-10.80464751 43.1325311 -10.83996951 39.18478903 -10.89672852 35.23681641 C-10.95119593 31.42422806 -10.9809823 27.6121609 -10.99391747 23.79921341 C-11.0031312 22.34714176 -11.02112414 20.89509752 -11.04818153 19.44324875 C-11.27708495 6.64776112 -11.27708495 6.64776112 -8.33398438 2.68359375 C-5.19430113 0.34353837 -3.86558125 -0.12957256 0 0 Z " fill="#E0D9C5" transform="translate(137.51953125,4.4140625)"/>
<path d="M0 0 C0 2.97 0 5.94 0 9 C-1.98 9.33 -3.96 9.66 -6 10 C-5.97679688 11.29035156 -5.95359375 12.58070312 -5.9296875 13.91015625 C-5.91091764 15.62759834 -5.89271875 17.34504674 -5.875 19.0625 C-5.85824219 19.91005859 -5.84148438 20.75761719 -5.82421875 21.63085938 C-5.77965477 27.40189491 -5.73923111 33.30446787 -9.625 37.9375 C-10.07875 38.288125 -10.5325 38.63875 -11 39 C-9.79618552 41.49361571 -8.54571278 43.68143083 -7 46 C-5.69578307 50.65544983 -5.66877581 55.50878767 -5.4375 60.3125 C-5.39431641 61.14845703 -5.35113281 61.98441406 -5.30664062 62.84570312 C-5.20114693 64.89696935 -5.10012685 66.9484648 -5 69 C-3.35 69.33 -1.7 69.66 0 70 C0 73.3 0 76.6 0 80 C-8.19589393 79.63301967 -8.19589393 79.63301967 -11.9375 76.6875 C-14.86041334 72.87885535 -16.25587702 70.35073834 -16.1328125 65.515625 C-15.71733638 55.88058533 -15.71733638 55.88058533 -18.875 47.1171875 C-21.06895499 45.12664054 -21.06895499 45.12664054 -23.30078125 43.4609375 C-25 42 -25 42 -25.3125 38.75 C-23.72960669 35.43346164 -22.08697652 33.95759487 -19 32 C-18.34 32 -17.68 32 -17 32 C-16.9906543 31.33468262 -16.98130859 30.66936523 -16.97167969 29.98388672 C-16.91773981 26.94685981 -16.83413938 23.91133421 -16.75 20.875 C-16.72873047 19.30492187 -16.72873047 19.30492187 -16.70703125 17.703125 C-16.46917528 10.18687639 -15.38691477 6.62883725 -10.25 1.125 C-6.80221427 -0.59889287 -3.82490982 -0.19124549 0 0 Z " fill="#FCFCFC" transform="translate(28,4)"/>
<path d="M0 0 C7.76785714 -0.66964286 7.76785714 -0.66964286 11.375 2.1875 C17.18617487 8.41375879 16.29899932 15.27032215 16.12695312 23.33984375 C16.07323793 28.45797287 16.07323793 28.45797287 18.56787109 32.68383789 C20.42983996 34.02509327 20.42983996 34.02509327 22.37524414 35.03735352 C24 36 24 36 25.25 38.4375 C24.86438487 42.39005505 22.71215463 44.22620549 20 47 C19.01 47.66 18.02 48.32 17 49 C16.55740103 51.1240298 16.55740103 51.1240298 16.62890625 53.578125 C16.61150391 54.49207031 16.59410156 55.40601563 16.57617188 56.34765625 C16.56713096 58.26691286 16.56185965 60.1861913 16.56054688 62.10546875 C16.44249415 67.91040612 15.95685295 71.43051954 12 76 C8.7092334 78.71845937 6.90359136 79.93306731 2.625 80.25 C1.75875 80.1675 0.8925 80.085 0 80 C0 76.7 0 73.4 0 70 C2.475 69.505 2.475 69.505 5 69 C5.03738281 67.70964844 5.07476562 66.41929688 5.11328125 65.08984375 C5.17897702 63.37236851 5.2454231 61.65492185 5.3125 59.9375 C5.34633789 58.66616211 5.34633789 58.66616211 5.38085938 57.36914062 C5.61458499 51.86596483 6.51382136 47.92161894 9 43 C9.391875 42.195625 9.78375 41.39125 10.1875 40.5625 C10.455625 40.046875 10.72375 39.53125 11 39 C10.0409375 37.88625 10.0409375 37.88625 9.0625 36.75 C6.26553301 33.02071069 5.90004408 30.02950337 5.68359375 25.453125 C5.62075195 24.18662109 5.62075195 24.18662109 5.55664062 22.89453125 C5.51732422 22.02183594 5.47800781 21.14914063 5.4375 20.25 C5.39431641 19.36183594 5.35113281 18.47367188 5.30664062 17.55859375 C5.20086385 15.37254037 5.09877454 13.18637911 5 11 C2.525 10.01 2.525 10.01 0 9 C0 6.03 0 3.06 0 0 Z " fill="#FCFCFC" transform="translate(41,4)"/>
<path d="M0 0 C0 24.09 0 48.18 0 73 C-3.96 73 -7.92 73 -12 73 C-12 50.89 -12 28.78 -12 6 C-1 0 -1 0 0 0 Z " fill="#FDFDFD" transform="translate(330,5)"/>
<path d="M0 0 C1.32 0 2.64 0 4 0 C4 5.28 4 10.56 4 16 C-3.33333333 17.22222222 -3.33333333 17.22222222 -6.4375 16.1875 C-8 15 -8 15 -9 13 C-9.45014808 7.71076012 -9.45014808 7.71076012 -7.8125 5.125 C-5.43963721 3.65218861 -3.74086056 3.77776806 -1 4 C-0.67 2.68 -0.34 1.36 0 0 Z M-4 8 C-4.33 8.99 -4.66 9.98 -5 11 C-3.515 11.99 -3.515 11.99 -2 13 C-1.34 11.68 -0.68 10.36 0 9 C-1.32 8.67 -2.64 8.34 -4 8 Z " fill="#FDFDFD" transform="translate(263,91)"/>
<path d="M0 0 C1.753125 0.103125 3.50625 0.20625 5.3125 0.3125 C5.3125 4.2725 5.3125 8.2325 5.3125 12.3125 C-2.94230769 13.64783654 -2.94230769 13.64783654 -6.1875 12.1875 C-8.10732411 9.78771987 -8.61413991 8.39362372 -8.6875 5.3125 C-7.30007646 0.10966171 -4.90936792 0 0 0 Z M-3.6875 4.3125 C-3.6875 5.6325 -3.6875 6.9525 -3.6875 8.3125 C-2.6975 8.6425 -1.7075 8.9725 -0.6875 9.3125 C-0.3575 7.6625 -0.0275 6.0125 0.3125 4.3125 C-1.0075 4.3125 -2.3275 4.3125 -3.6875 4.3125 Z " fill="#FDFDFD" transform="translate(276.6875,94.6875)"/>
<path d="M0 0 C8.3984375 -0.29296875 8.3984375 -0.29296875 11 0 C13.13586678 3.20380017 13.23132175 4.01939967 13.125 7.6875 C13.10695313 8.49574219 13.08890625 9.30398437 13.0703125 10.13671875 C13.03550781 11.05904297 13.03550781 11.05904297 13 12 C11.35 12 9.7 12 8 12 C8 9.36 8 6.72 8 4 C7.01 4 6.02 4 5 4 C5 6.64 5 9.28 5 12 C3.35 12 1.7 12 0 12 C0 8.04 0 4.08 0 0 Z " fill="#FBFCFC" transform="translate(311,95)"/>
<path d="M0 0 C1.65 0 3.3 0 5 0 C5.33 2.64 5.66 5.28 6 8 C6.33 8 6.66 8 7 8 C7.33 5.36 7.66 2.72 8 0 C9.65 0 11.3 0 13 0 C13 3.96 13 7.92 13 12 C5.66666667 13.22222222 5.66666667 13.22222222 2.5625 12.1875 C1 11 1 11 0 9 C-0.06950541 7.45976004 -0.08452357 5.91665012 -0.0625 4.375 C-0.05347656 3.55773437 -0.04445312 2.74046875 -0.03515625 1.8984375 C-0.02355469 1.27195312 -0.01195312 0.64546875 0 0 Z " fill="#FCFCFC" transform="translate(226,95)"/>
<path d="M0 0 C3.5 0.5 3.5 0.5 5.4375 1.5625 C7.153547 4.69176217 6.99748049 7.01763658 6.5 10.5 C4.375 12.5625 4.375 12.5625 1.5 13.5 C-1.6875 13.0625 -1.6875 13.0625 -4.5 11.5 C-6.0625 8.6875 -6.0625 8.6875 -6.5 5.5 C-5.14265995 1.33749052 -4.37929057 0.62561294 0 0 Z M-1.5 4.5 C-1.17 6.15 -0.84 7.8 -0.5 9.5 C0.49 9.17 1.48 8.84 2.5 8.5 C2.17 7.18 1.84 5.86 1.5 4.5 C0.51 4.5 -0.48 4.5 -1.5 4.5 Z " fill="#FBFCFC" transform="translate(303.5,94.5)"/>
<path d="M0 0 C1.875 1.0625 1.875 1.0625 3 3 C3.5 6.5 3.5 6.5 3 10 C0.875 12.0625 0.875 12.0625 -2 13 C-5.1875 12.5625 -5.1875 12.5625 -8 11 C-9.5 8.125 -9.5 8.125 -10 5 C-9.25 2.6875 -9.25 2.6875 -8 1 C-5.20129973 -0.39935013 -3.09501208 -0.25265405 0 0 Z M-5 4 C-4.67 5.65 -4.34 7.3 -4 9 C-3.01 8.67 -2.02 8.34 -1 8 C-1.33 6.68 -1.66 5.36 -2 4 C-2.99 4 -3.98 4 -5 4 Z " fill="#FDFDFD" transform="translate(222,95)"/>
<path d="M0 0 C1.60875 -0.04125 3.2175 -0.0825 4.875 -0.125 C5.77992188 -0.14820312 6.68484375 -0.17140625 7.6171875 -0.1953125 C10 0 10 0 12 2 C12.1953125 4.3828125 12.1953125 4.3828125 12.125 7.125 C12.10695312 8.03507812 12.08890625 8.94515625 12.0703125 9.8828125 C12.04710937 10.58148438 12.02390625 11.28015625 12 12 C10.68 12 9.36 12 8 12 C7.67 9.69 7.34 7.38 7 5 C6.01 4.67 5.02 4.34 4 4 C4 6.64 4 9.28 4 12 C2.68 12 1.36 12 0 12 C0 8.04 0 4.08 0 0 Z " fill="#FDFDFD" transform="translate(241,95)"/>
<path d="M0 0 C3.3 0 6.6 0 10 0 C10 1.32 10 2.64 10 4 C8.02 4 6.04 4 4 4 C4 4.66 4 5.32 4 6 C5.65 6 7.3 6 9 6 C9 6.99 9 7.98 9 9 C7.35 9 5.7 9 4 9 C4 10.98 4 12.96 4 15 C2.68 15 1.36 15 0 15 C0 10.05 0 5.1 0 0 Z " fill="#FCFCFC" transform="translate(202,92)"/>
<path d="M0 0 C1.32 0 2.64 0 4 0 C4 3.96 4 7.92 4 12 C2.68 12 1.36 12 0 12 C0 8.04 0 4.08 0 0 Z " fill="#FBFDFC" transform="translate(292,95)"/>
</svg>
