<?xml version="1.0" encoding="utf-8"?>
<svg xmlns="http://www.w3.org/2000/svg" viewBox="0 0 500 500">
  <path d="M 379.108 188.624 C 383.398 188.624 387.688 188.624 392.108 188.624 C 392.438 189.284 392.768 189.944 393.108 190.624 C 393.624 190.294 394.139 189.964 394.671 189.624 C 398.001 188.257 400.535 188.31 404.108 188.624 C 406.858 190.124 406.858 190.124 409.108 191.624 C 412.143 191.901 412.143 191.901 414.358 190.124 C 417.891 188.197 420.13 188.198 424.108 188.624 C 427.931 190.323 429.58 191.771 431.108 195.624 C 431.349 198.041 431.349 198.041 431.335 200.76 C 431.335 201.78 431.335 202.801 431.335 203.853 C 431.324 204.948 431.314 206.043 431.303 207.171 C 431.301 208.297 431.298 209.423 431.295 210.584 C 431.284 214.181 431.259 217.777 431.233 221.374 C 431.223 223.813 431.214 226.251 431.206 228.69 C 431.184 234.668 431.149 240.646 431.108 246.624 C 427.148 246.624 423.188 246.624 419.108 246.624 C 419.108 231.444 419.108 216.264 419.108 200.624 C 416.468 200.624 413.828 200.624 411.108 200.624 C 411.108 215.804 411.108 230.984 411.108 246.624 C 407.148 246.624 403.188 246.624 399.108 246.624 C 399.108 231.444 399.108 216.264 399.108 200.624 C 396.798 200.624 394.488 200.624 392.108 200.624 C 392.108 215.804 392.108 230.984 392.108 246.624 C 387.818 246.624 383.528 246.624 379.108 246.624 C 379.108 227.484 379.108 208.344 379.108 188.624 Z" style="fill: rgb(29, 35, 51);"/>
  <path d="M 241.108 174.624 C 250.018 174.624 258.928 174.624 268.108 174.624 C 274.069 180.584 274.069 180.584 274.222 184.605 C 274.216 185.851 274.211 187.097 274.206 188.382 C 274.204 189.045 274.203 189.708 274.201 190.391 C 274.196 192.51 274.183 194.629 274.171 196.749 C 274.166 198.185 274.161 199.621 274.157 201.057 C 274.146 204.58 274.129 208.102 274.108 211.624 C 272.128 212.614 270.148 213.604 268.108 214.624 C 270.459 222.298 273.658 229.432 277.055 236.69 C 277.448 237.542 277.84 238.394 278.245 239.272 C 278.603 240.037 278.961 240.802 279.33 241.59 C 280.108 243.624 280.108 243.624 280.108 246.624 C 275.818 246.624 271.528 246.624 267.108 246.624 C 265.27 242.668 263.438 238.709 261.608 234.749 C 261.083 233.621 260.559 232.493 260.018 231.331 C 259.522 230.254 259.026 229.178 258.514 228.069 C 258.054 227.074 257.593 226.079 257.118 225.054 C 256.108 222.624 256.108 222.624 256.108 220.624 C 255.448 220.624 254.788 220.624 254.108 220.624 C 254.108 229.204 254.108 237.784 254.108 246.624 C 249.818 246.624 245.528 246.624 241.108 246.624 C 241.108 222.864 241.108 199.104 241.108 174.624 Z M 254.108 185.624 C 254.108 192.884 254.108 200.144 254.108 207.624 C 256.748 206.304 259.388 204.984 262.108 203.624 C 262.108 197.684 262.108 191.744 262.108 185.624 C 259.468 185.624 256.828 185.624 254.108 185.624 Z" style="fill: rgb(29, 35, 51);"/>
  <path d="M 320.108 188.624 C 324.398 188.624 328.688 188.624 333.108 188.624 C 333.108 199.844 333.108 211.064 333.108 222.624 C 335.088 221.634 337.068 220.644 339.108 219.624 C 339.438 209.394 339.768 199.164 340.108 188.624 C 344.068 188.624 348.028 188.624 352.108 188.624 C 352.224 197.273 352.313 205.922 352.367 214.572 C 352.393 218.589 352.429 222.605 352.485 226.621 C 352.54 230.499 352.57 234.375 352.583 238.253 C 352.592 239.731 352.61 241.209 352.637 242.687 C 352.673 244.761 352.678 246.832 352.676 248.906 C 352.692 250.675 352.692 250.675 352.709 252.479 C 351.93 256.558 350.267 258.024 347.108 260.624 C 341.512 263.095 335.991 262.693 330.108 261.624 C 330.108 262.284 330.108 262.944 330.108 263.624 C 331.098 263.624 332.088 263.624 333.108 263.624 C 333.108 264.944 333.108 266.264 333.108 267.624 C 332.118 267.624 331.128 267.624 330.108 267.624 C 330.108 268.944 330.108 270.264 330.108 271.624 C 331.098 271.954 332.088 272.284 333.108 272.624 C 333.108 273.614 333.108 274.604 333.108 275.624 C 331.109 275.666 329.108 275.665 327.108 275.624 C 324.766 273.282 325.779 267.311 325.682 264.139 C 325.026 260.119 323.725 258.649 321.108 255.624 C 320.367 252.903 320.301 250.463 320.108 247.624 C 321.897 246.619 323.689 245.62 325.483 244.624 C 326.481 244.067 327.479 243.51 328.507 242.936 C 331.108 241.624 331.108 241.624 333.108 241.624 C 333.108 244.264 333.108 246.904 333.108 249.624 C 335.418 249.624 337.728 249.624 340.108 249.624 C 339.778 244.014 339.448 238.404 339.108 232.624 C 337.904 233.285 336.7 233.946 335.46 234.628 C 333.884 235.481 332.309 236.334 330.733 237.186 C 329.542 237.843 329.542 237.843 328.327 238.512 C 327.186 239.126 327.186 239.126 326.022 239.753 C 325.32 240.135 324.619 240.517 323.896 240.911 C 323.306 241.146 322.716 241.382 322.108 241.624 C 321.448 241.294 320.788 240.964 320.108 240.624 C 320.108 223.464 320.108 206.304 320.108 188.624 Z" style="fill: rgb(29, 35, 51);"/>
  <path d="M 129.108 173.624 C 138.018 173.624 146.928 173.624 156.108 173.624 C 161.376 178.892 162.221 180.16 162.269 187.01 C 162.279 188.111 162.288 189.213 162.298 190.348 C 162.303 191.539 162.307 192.729 162.311 193.956 C 162.317 195.18 162.323 196.405 162.329 197.666 C 162.338 200.26 162.345 202.853 162.348 205.446 C 162.358 209.41 162.389 213.373 162.421 217.337 C 162.427 219.856 162.432 222.374 162.436 224.893 C 162.449 226.078 162.461 227.262 162.474 228.483 C 162.445 238.961 162.445 238.961 159.108 243.624 C 150.769 249.183 139.13 245.624 129.108 245.624 C 129.108 221.864 129.108 198.104 129.108 173.624 Z M 142.108 184.624 C 140.966 186.909 140.981 188.18 140.979 190.719 C 140.976 191.563 140.972 192.408 140.969 193.278 C 140.971 194.193 140.973 195.107 140.975 196.05 C 140.974 196.989 140.973 197.929 140.972 198.897 C 140.972 200.889 140.974 202.88 140.978 204.872 C 140.983 207.913 140.978 210.955 140.971 213.997 C 140.972 215.931 140.973 217.865 140.975 219.8 C 140.973 220.708 140.971 221.617 140.969 222.553 C 140.984 226.704 141.053 230.576 142.108 234.624 C 144.418 234.624 146.728 234.624 149.108 234.624 C 149.108 218.124 149.108 201.624 149.108 184.624 C 146.798 184.624 144.488 184.624 142.108 184.624 Z" style="fill: rgb(55, 88, 249);"/>
  <path d="M 199.108 173.624 C 203.398 173.624 207.688 173.624 212.108 173.624 C 212.969 178.355 213.824 183.087 214.672 187.821 C 214.961 189.429 215.252 191.037 215.545 192.645 C 215.967 194.962 216.382 197.281 216.796 199.6 C 216.927 200.313 217.058 201.026 217.193 201.76 C 217.9 205.765 218.242 209.559 218.108 213.624 C 218.768 213.624 219.428 213.624 220.108 213.624 C 220.172 212.581 220.172 212.581 220.237 211.517 C 220.829 203.183 222.141 195.083 223.671 186.874 C 223.905 185.592 224.139 184.311 224.38 182.991 C 224.951 179.868 225.529 176.746 226.108 173.624 C 230.398 173.624 234.688 173.624 239.108 173.624 C 236.202 191.261 233.274 208.894 230.189 226.5 C 229.927 227.998 229.666 229.496 229.406 230.994 C 229.043 233.082 228.676 235.169 228.307 237.257 C 228.099 238.441 227.891 239.626 227.677 240.847 C 227.108 243.624 227.108 243.624 226.108 245.624 C 221.488 245.624 216.868 245.624 212.108 245.624 C 210.024 236.852 208.199 228.087 206.628 219.21 C 206.41 217.992 206.192 216.775 205.968 215.52 C 205.513 212.975 205.061 210.429 204.609 207.882 C 203.916 203.974 203.217 200.066 202.516 196.159 C 202.074 193.676 201.632 191.193 201.19 188.71 C 200.981 187.541 200.771 186.372 200.556 185.168 C 200.365 184.089 200.175 183.01 199.978 181.899 C 199.81 180.95 199.641 180.001 199.468 179.023 C 199.108 176.624 199.108 176.624 199.108 173.624 Z" style="fill: rgb(55, 88, 249);"/>
  <path d="M 293.108 173.624 C 293.438 179.564 293.768 185.504 294.108 191.624 C 295.758 190.634 297.408 189.644 299.108 188.624 C 304.079 188.091 307.167 188.471 311.108 191.624 C 313.061 194.734 313.353 197.12 313.335 200.76 C 313.335 201.78 313.335 202.801 313.335 203.853 C 313.324 204.948 313.314 206.043 313.303 207.171 C 313.301 208.297 313.298 209.423 313.295 210.584 C 313.284 214.181 313.259 217.777 313.233 221.374 C 313.223 223.813 313.214 226.251 313.206 228.69 C 313.184 234.668 313.149 240.646 313.108 246.624 C 309.148 246.624 305.188 246.624 301.108 246.624 C 301.108 231.444 301.108 216.264 301.108 200.624 C 298.468 200.624 295.828 200.624 293.108 200.624 C 293.108 215.804 293.108 230.984 293.108 246.624 C 289.148 246.624 285.188 246.624 281.108 246.624 C 281.108 224.514 281.108 202.404 281.108 179.624 C 292.108 173.624 292.108 173.624 293.108 173.624 Z" style="fill: rgb(29, 35, 51);"/>
  <path d="M 454.608 188.249 C 455.354 188.237 456.101 188.226 456.87 188.214 C 461.426 188.238 464.416 188.69 468.108 191.624 C 470.21 194.777 470.352 195.485 470.303 199.073 C 470.297 199.921 470.291 200.768 470.284 201.641 C 470.267 202.522 470.25 203.404 470.233 204.311 C 470.224 205.204 470.215 206.097 470.206 207.016 C 470.182 209.219 470.149 211.421 470.108 213.624 C 467.32 215.131 464.527 216.628 461.733 218.124 C 460.939 218.553 460.145 218.982 459.327 219.425 C 458.186 220.034 458.186 220.034 457.022 220.655 C 455.97 221.221 455.97 221.221 454.896 221.798 C 453.108 222.624 453.108 222.624 451.108 222.624 C 451.108 226.914 451.108 231.204 451.108 235.624 C 453.418 235.624 455.728 235.624 458.108 235.624 C 458.108 231.994 458.108 228.364 458.108 224.624 C 467.858 219.624 467.858 219.624 470.108 219.624 C 470.254 222.998 470.342 226.372 470.421 229.749 C 470.463 230.7 470.504 231.651 470.548 232.632 C 470.622 236.91 470.682 240.612 468.245 244.261 C 463.742 247.653 460.104 247.474 454.608 247.311 C 453.671 247.326 452.734 247.341 451.768 247.356 C 447.146 247.301 444.806 247.141 441.014 244.331 C 437.613 239.5 437.935 234.706 437.905 228.948 C 437.899 228.105 437.894 227.261 437.888 226.392 C 437.878 224.61 437.872 222.827 437.868 221.044 C 437.858 218.331 437.827 215.619 437.796 212.907 C 437.789 211.171 437.784 209.434 437.78 207.698 C 437.768 206.894 437.755 206.089 437.743 205.26 C 437.763 199.974 438.626 196.317 441.108 191.624 C 445.197 187.994 449.409 188.168 454.608 188.249 Z M 451.108 200.624 C 451.108 204.254 451.108 207.884 451.108 211.624 C 453.418 210.634 455.728 209.644 458.108 208.624 C 458.108 205.984 458.108 203.344 458.108 200.624 C 455.798 200.624 453.488 200.624 451.108 200.624 Z" style="fill: rgb(29, 35, 51);"/>
  <path d="M 179.628 173.038 C 180.65 173.057 181.671 173.076 182.724 173.096 C 183.779 173.147 184.834 173.197 185.921 173.249 C 187.533 173.289 187.533 173.289 189.177 173.331 C 191.822 173.401 194.465 173.509 197.109 173.624 C 197.109 177.254 197.109 180.884 197.109 184.624 C 191.829 184.624 186.549 184.624 181.109 184.624 C 181.109 190.564 181.109 196.504 181.109 202.624 C 185.628 200.324 185.628 200.324 190.143 198.016 C 194.886 195.624 194.886 195.624 197.109 195.624 C 197.109 200.244 197.109 204.864 197.109 209.624 C 194.819 210.795 192.527 211.961 190.234 213.124 C 189.583 213.458 188.932 213.791 188.261 214.135 C 183.335 216.624 183.335 216.624 181.109 216.624 C 181.109 222.564 181.109 228.504 181.109 234.624 C 186.389 234.624 191.669 234.624 197.109 234.624 C 197.109 238.254 197.109 241.884 197.109 245.624 C 187.869 245.624 178.629 245.624 169.109 245.624 C 168.995 237.122 168.904 228.621 168.85 220.119 C 168.823 216.17 168.788 212.223 168.731 208.275 C 168.677 204.462 168.647 200.65 168.634 196.837 C 168.625 195.385 168.607 193.933 168.58 192.481 C 168.351 179.686 168.351 179.686 171.294 175.721 C 174.434 173.381 175.763 172.908 179.628 173.038 Z" style="fill: rgb(55, 88, 249);"/>
  <path d="M 70.108 172.624 C 70.108 175.594 70.108 178.564 70.108 181.624 C 68.128 181.954 66.148 182.284 64.108 182.624 C 64.131 183.914 64.155 185.205 64.178 186.534 C 64.197 188.251 64.215 189.969 64.233 191.686 C 64.25 192.534 64.267 193.381 64.284 194.255 C 64.328 200.026 64.369 205.928 60.483 210.561 C 60.029 210.912 59.576 211.263 59.108 211.624 C 60.312 214.117 61.562 216.305 63.108 218.624 C 64.412 223.279 64.439 228.133 64.671 232.936 C 64.714 233.772 64.757 234.608 64.801 235.47 C 64.907 237.521 65.008 239.572 65.108 241.624 C 66.758 241.954 68.408 242.284 70.108 242.624 C 70.108 245.924 70.108 249.224 70.108 252.624 C 61.912 252.257 61.912 252.257 58.171 249.311 C 55.248 245.503 53.852 242.975 53.975 238.139 C 54.391 228.504 54.391 228.504 51.233 219.741 C 49.039 217.75 49.039 217.75 46.807 216.085 C 45.108 214.624 45.108 214.624 44.796 211.374 C 46.379 208.057 48.021 206.581 51.108 204.624 C 51.768 204.624 52.428 204.624 53.108 204.624 C 53.117 203.958 53.127 203.293 53.136 202.608 C 53.19 199.571 53.274 196.535 53.358 193.499 C 53.379 191.929 53.379 191.929 53.401 190.327 C 53.639 182.811 54.721 179.253 59.858 173.749 C 63.306 172.025 66.283 172.433 70.108 172.624 Z" style="fill: rgb(55, 88, 249);"/>
  <path d="M 83.108 172.624 C 90.876 171.954 90.876 171.954 94.483 174.811 C 100.294 181.038 99.407 187.894 99.235 195.964 C 99.181 201.082 99.181 201.082 101.676 205.308 C 103.538 206.649 103.538 206.649 105.483 207.661 C 107.108 208.624 107.108 208.624 108.358 211.061 C 107.973 215.014 105.82 216.85 103.108 219.624 C 102.118 220.284 101.128 220.944 100.108 221.624 C 99.666 223.748 99.666 223.748 99.737 226.202 C 99.72 227.116 99.702 228.03 99.684 228.971 C 99.675 230.891 99.67 232.81 99.669 234.729 C 99.551 240.534 99.065 244.054 95.108 248.624 C 91.817 251.342 90.012 252.557 85.733 252.874 C 84.867 252.791 84.001 252.709 83.108 252.624 C 83.108 249.324 83.108 246.024 83.108 242.624 C 85.583 242.129 85.583 242.129 88.108 241.624 C 88.145 240.333 88.183 239.043 88.221 237.714 C 88.287 235.996 88.354 234.279 88.421 232.561 C 88.454 231.29 88.454 231.29 88.489 229.993 C 88.723 224.49 89.622 220.545 92.108 215.624 C 92.5 214.819 92.892 214.015 93.296 213.186 C 93.564 212.671 93.832 212.155 94.108 211.624 C 93.149 210.51 93.149 210.51 92.171 209.374 C 89.374 205.645 89.008 202.653 88.792 198.077 C 88.729 196.81 88.729 196.81 88.665 195.518 C 88.625 194.646 88.586 193.773 88.546 192.874 C 88.502 191.986 88.459 191.097 88.415 190.182 C 88.309 187.996 88.207 185.81 88.108 183.624 C 85.633 182.634 85.633 182.634 83.108 181.624 C 83.108 178.654 83.108 175.684 83.108 172.624 Z" style="fill: rgb(55, 88, 249);"/>
  <path d="M 372.108 173.624 C 372.108 197.714 372.108 221.804 372.108 246.624 C 368.148 246.624 364.188 246.624 360.108 246.624 C 360.108 224.514 360.108 202.404 360.108 179.624 C 371.108 173.624 371.108 173.624 372.108 173.624 Z" style="fill: rgb(29, 35, 51);"/>
  <path d="M 305.108 259.624 C 306.428 259.624 307.748 259.624 309.108 259.624 C 309.108 264.904 309.108 270.184 309.108 275.624 C 301.775 276.846 301.775 276.846 298.671 275.811 C 297.108 274.624 297.108 274.624 296.108 272.624 C 295.658 267.335 295.658 267.335 297.296 264.749 C 299.668 263.276 301.367 263.402 304.108 263.624 C 304.438 262.304 304.768 260.984 305.108 259.624 Z M 301.108 267.624 C 300.778 268.614 300.448 269.604 300.108 270.624 C 301.593 271.614 301.593 271.614 303.108 272.624 C 303.768 271.304 304.428 269.984 305.108 268.624 C 303.788 268.294 302.468 267.964 301.108 267.624 Z" style="fill: rgb(29, 35, 51);"/>
  <path d="M 318.796 263.312 C 320.549 263.415 322.302 263.518 324.109 263.624 C 324.109 267.584 324.109 271.544 324.109 275.624 C 315.854 276.96 315.854 276.96 312.609 275.499 C 310.689 273.1 310.182 271.705 310.109 268.624 C 311.496 263.421 313.887 263.312 318.796 263.312 Z M 315.109 267.624 C 315.109 268.944 315.109 270.264 315.109 271.624 C 316.099 271.954 317.089 272.284 318.109 272.624 C 318.439 270.974 318.769 269.324 319.109 267.624 C 317.789 267.624 316.469 267.624 315.109 267.624 Z" style="fill: rgb(29, 35, 51);"/>
  <path d="M 353.108 263.624 C 361.507 263.331 361.507 263.331 364.108 263.624 C 366.244 266.828 366.339 267.643 366.233 271.311 C 366.215 272.12 366.197 272.928 366.178 273.761 C 366.144 274.683 366.144 274.683 366.108 275.624 C 364.458 275.624 362.808 275.624 361.108 275.624 C 361.108 272.984 361.108 270.344 361.108 267.624 C 360.118 267.624 359.128 267.624 358.108 267.624 C 358.108 270.264 358.108 272.904 358.108 275.624 C 356.458 275.624 354.808 275.624 353.108 275.624 C 353.108 271.664 353.108 267.704 353.108 263.624 Z" style="fill: rgb(29, 35, 51);"/>
  <path d="M 268.108 263.624 C 269.758 263.624 271.408 263.624 273.108 263.624 C 273.438 266.264 273.768 268.904 274.108 271.624 C 274.438 271.624 274.768 271.624 275.108 271.624 C 275.438 268.984 275.768 266.344 276.108 263.624 C 277.758 263.624 279.408 263.624 281.108 263.624 C 281.108 267.584 281.108 271.544 281.108 275.624 C 273.775 276.846 273.775 276.846 270.671 275.811 C 269.108 274.624 269.108 274.624 268.108 272.624 C 268.039 271.084 268.024 269.54 268.046 267.999 C 268.055 267.182 268.064 266.364 268.073 265.522 C 268.085 264.896 268.096 264.269 268.108 263.624 Z" style="fill: rgb(29, 35, 51);"/>
  <path d="M 345.608 263.124 C 349.108 263.624 349.108 263.624 351.046 264.686 C 352.762 267.816 352.606 270.141 352.108 273.624 C 349.983 275.686 349.983 275.686 347.108 276.624 C 343.921 276.186 343.921 276.186 341.108 274.624 C 339.546 271.811 339.546 271.811 339.108 268.624 C 340.465 264.461 341.229 263.749 345.608 263.124 Z M 344.108 267.624 C 344.438 269.274 344.768 270.924 345.108 272.624 C 346.098 272.294 347.088 271.964 348.108 271.624 C 347.778 270.304 347.448 268.984 347.108 267.624 C 346.118 267.624 345.128 267.624 344.108 267.624 Z" style="fill: rgb(29, 35, 51);"/>
  <path d="M 264.108 263.624 C 265.983 264.686 265.983 264.686 267.108 266.624 C 267.608 270.124 267.608 270.124 267.108 273.624 C 264.983 275.686 264.983 275.686 262.108 276.624 C 258.921 276.186 258.921 276.186 256.108 274.624 C 254.608 271.749 254.608 271.749 254.108 268.624 C 254.858 266.311 254.858 266.311 256.108 264.624 C 258.907 263.224 261.013 263.371 264.108 263.624 Z M 259.108 267.624 C 259.438 269.274 259.768 270.924 260.108 272.624 C 261.098 272.294 262.088 271.964 263.108 271.624 C 262.778 270.304 262.448 268.984 262.108 267.624 C 261.118 267.624 260.128 267.624 259.108 267.624 Z" style="fill: rgb(29, 35, 51);"/>
  <path d="M 283.108 263.624 C 284.717 263.583 286.326 263.541 287.983 263.499 C 288.888 263.476 289.793 263.452 290.725 263.428 C 293.108 263.624 293.108 263.624 295.108 265.624 C 295.303 268.007 295.303 268.007 295.233 270.749 C 295.215 271.659 295.197 272.569 295.178 273.507 C 295.155 274.205 295.132 274.904 295.108 275.624 C 293.788 275.624 292.468 275.624 291.108 275.624 C 290.778 273.314 290.448 271.004 290.108 268.624 C 289.118 268.294 288.128 267.964 287.108 267.624 C 287.108 270.264 287.108 272.904 287.108 275.624 C 285.788 275.624 284.468 275.624 283.108 275.624 C 283.108 271.664 283.108 267.704 283.108 263.624 Z" style="fill: rgb(29, 35, 51);"/>
  <path d="M 244.108 260.624 C 247.408 260.624 250.708 260.624 254.108 260.624 C 254.108 261.944 254.108 263.264 254.108 264.624 C 252.128 264.624 250.148 264.624 248.108 264.624 C 248.108 265.284 248.108 265.944 248.108 266.624 C 249.758 266.624 251.408 266.624 253.108 266.624 C 253.108 267.614 253.108 268.604 253.108 269.624 C 251.458 269.624 249.808 269.624 248.108 269.624 C 248.108 271.604 248.108 273.584 248.108 275.624 C 246.788 275.624 245.468 275.624 244.108 275.624 C 244.108 270.674 244.108 265.724 244.108 260.624 Z" style="fill: rgb(29, 35, 51);"/>
  <path d="M 334.108 263.624 C 335.428 263.624 336.748 263.624 338.108 263.624 C 338.108 267.584 338.108 271.544 338.108 275.624 C 336.788 275.624 335.468 275.624 334.108 275.624 C 334.108 271.664 334.108 267.704 334.108 263.624 Z" style="fill: rgb(29, 35, 51);"/>
</svg>