<?xml version="1.0" encoding="UTF-8" standalone="no"?>
<!-- Created with Inkscape (http://www.inkscape.org/) -->

<svg
   width="103.78975mm"
   height="22.932903mm"
   viewBox="0 0 103.78975 22.932903"
   version="1.1"
   id="svg1"
   xml:space="preserve"
   xmlns:inkscape="http://www.inkscape.org/namespaces/inkscape"
   xmlns:sodipodi="http://sodipodi.sourceforge.net/DTD/sodipodi-0.dtd"
   xmlns="http://www.w3.org/2000/svg"
   xmlns:svg="http://www.w3.org/2000/svg"><sodipodi:namedview
     id="namedview1"
     pagecolor="#ffffff"
     bordercolor="#000000"
     borderopacity="0.25"
     inkscape:showpageshadow="2"
     inkscape:pageopacity="0.0"
     inkscape:pagecheckerboard="0"
     inkscape:deskcolor="#d1d1d1"
     inkscape:document-units="mm" /><defs
     id="defs1" /><g
     inkscape:label="Layer 1"
     inkscape:groupmode="layer"
     id="layer1"
     transform="translate(-216.45623,-183.76995)"><g
       id="g14"
       transform="translate(169.85032,-33.509627)"><text
         xml:space="preserve"
         style="font-weight:bold;font-size:22.416px;line-height:0px;font-family:Alkatra;-inkscape-font-specification:'Alkatra Bold';fill:#5f5242;fill-opacity:0.335849;fill-rule:evenodd;stroke:#ffffff;stroke-width:0.635412"
         x="36.951294"
         y="261.86694"
         id="text1"
         transform="scale(1.1164336,0.89570933)"><tspan
           sodipodi:role="line"
           id="tspan1"
           style="font-style:normal;font-variant:normal;font-weight:normal;font-stretch:normal;font-size:22.416px;font-family:'MS Gothic';-inkscape-font-specification:'MS Gothic';fill:#ffffff;fill-opacity:1;stroke:#ffffff;stroke-width:0.635412;stroke-opacity:0"
           x="36.951294"
           y="261.86694">{</tspan></text><text
         xml:space="preserve"
         style="font-weight:bold;font-size:22.2862px;line-height:0px;font-family:Alkatra;-inkscape-font-specification:'Alkatra Bold';fill:#5f5242;fill-opacity:0.335849;fill-rule:evenodd;stroke:#ffffff;stroke-width:0.631736"
         x="-58.647793"
         y="260.23907"
         id="text1-1"
         transform="scale(-1.1094863,0.90131801)"><tspan
           sodipodi:role="line"
           id="tspan1-01"
           style="font-style:normal;font-variant:normal;font-weight:normal;font-stretch:normal;font-size:22.2862px;font-family:'MS Gothic';-inkscape-font-specification:'MS Gothic';fill:#ffffff;fill-opacity:1;stroke:#ffffff;stroke-width:0.631736;stroke-opacity:0"
           x="-58.647793"
           y="260.23907">{</tspan></text><path
         style="fill:#ffffff;fill-opacity:1;fill-rule:evenodd;stroke:#00002f;stroke-width:0.0986484;stroke-dasharray:none;stroke-opacity:0"
         d="m 111.87916,221.81623 v 13.06666 l 5.0209,-2.45777 v 5.16444 h -2.14268 v -2.30223 l -3.00614,1.46223 v 1.64889 c 0,0 -0.032,1.74222 1.80689,1.75778 1.83885,0.0156 4.49321,0 4.49321,0 0,0 1.72693,-0.14001 1.75892,-1.54001 0.032,-1.4 0,-16.79999 0,-16.79999 h -2.84624 v 7.71556 l -2.20664,1.11999 v -8.86665 z"
         id="path10" /><path
         id="path2"
         style="fill:#e1d9c4;fill-opacity:1;fill-rule:evenodd;stroke:#00002f;stroke-width:1;stroke-opacity:0"
         d="m 68.65287,217.77958 c -2.532273,0 -6.251298,5.1e-4 -6.251298,5.1e-4 v 18.96887 h 6.273519 c 0,0 2.216014,-0.0222 2.238623,-2.39624 0.0226,-2.374 0,-14.38 0,-14.38 0,0 0.271431,-2.19314 -2.260844,-2.19314 z m -3.092834,2.86494 h 2.238106 v 13.23795 h -2.270145 z" /><path
         style="fill:#e1d9c4;fill-opacity:1;fill-rule:evenodd;stroke:#00002f;stroke-width:1.00213;stroke-opacity:0"
         d="m 79.796235,217.7941 h -5.050528 c 0,0 -2.093733,-0.0643 -2.093733,2.10388 0,2.16811 0,16.84708 0,16.84708 h 7.144261 v -2.56962 h -4.315324 v -4.49684 l 4.188836,-2.43015 v -3.31938 l -4.207415,2.44092 v -5.52447 h 4.397834 z"
         id="path3" /><path
         style="fill:#e1d9c4;fill-opacity:1;fill-rule:evenodd;stroke:#00002f;stroke-width:0.998665;stroke-opacity:0"
         d="m 80.279712,217.85182 h 3.197925 l 2.014688,11.76561 2.142617,-11.82937 3.133964,0.0319 -3.549692,18.93976 h -3.421783 z"
         id="path4" /><path
         id="path8"
         style="fill:#ffffff;fill-opacity:1;fill-rule:evenodd;stroke:#00002f;stroke-width:0.998216;stroke-opacity:0"
         d="m 91.22895,217.81462 v 18.96553 h 3.211283 v -7.04946 l 0.40677,-0.15856 3.279507,7.26414 h 3.41441 l -3.934892,-8.43537 1.899483,-1.04715 v -7.63686 c 0,0 -0.0904,-1.85736 -1.910854,-1.83484 -1.820424,0.0225 -6.365707,-0.0675 -6.365707,-0.0675 z m 3.181308,2.95404 h 2.57812 v 4.97679 l -2.57812,1.11614 z" /><path
         style="fill:#ffffff;fill-opacity:1;fill-rule:evenodd;stroke:#00002f;stroke-width:0.0995414;stroke-dasharray:none;stroke-opacity:0"
         d="m 101.81592,219.21185 2.97385,-1.45728 v 5.32226 c 0,0 2.94187,-3.26305 5.21223,0.53858 V 236.731 h -2.87792 v -12.22855 h -2.33431 v 12.26022 h -3.03781 z"
         id="path9" /><path
         style="fill:#ffffff;fill-opacity:1;fill-rule:evenodd;stroke:#00002f;stroke-width:0.1;stroke-dasharray:none;stroke-opacity:0"
         d="m 126.80583,221.65337 v 15.09212 h 3.0696 v -12.27834 h 2.07836 v 12.34229 h 3.06958 v -12.43821 h 2.30218 v 12.37426 h 2.87774 v -13.62128 c 0,0 -2.55799,-3.45329 -5.17992,0 h -0.35172 c 0,0 -2.39812,-3.11755 -4.82819,0 v -1.43887 z"
         id="path12" /><path
         id="path14"
         style="fill:#ffffff;fill-opacity:1;fill-rule:evenodd;stroke:#00002f;stroke-width:0.1;stroke-dasharray:none;stroke-opacity:0"
         d="m 143.83392,221.70801 c -1.31136,0 -1.62781,1.37873 -1.62781,1.37873 v 11.82512 c 0,1.60527 1.53738,1.80867 1.53738,1.80867 0,0 3.39144,0.0453 4.83846,0.0227 1.44702,-0.0226 1.76372,-1.78645 1.76372,-1.78645 v -5.29064 l -3.00705,1.60559 v 2.50941 h -2.19315 v -3.32332 l 5.10976,-2.55488 v -4.61264 c 0,-1.33396 -1.51515,-1.58233 -1.51515,-1.58233 z m 3.57653,2.41381 v 2.35799 l -2.26343,1.00408 0.0171,-3.35432 z" /><path
         style="fill:#ffffff;fill-opacity:1;fill-rule:evenodd;stroke:#00002f;stroke-width:0.1;stroke-dasharray:none;stroke-opacity:0"
         d="m 121.88124,219.10492 2.99075,-1.72671 V 236.787 h -2.95878 z"
         id="path11" /></g></g></svg>
